<svg width="32" height="32" fill="none" xmlns="http://www.w3.org/2000/svg"><path d="M22.467 0H9.533C4.276 0 0 4.276 0 9.533v12.934C0 27.724 4.276 32 9.533 32h12.934C27.724 32 32 27.724 32 22.467V9.533C32 4.276 27.724 0 22.467 0zm6.314 22.467a6.314 6.314 0 01-6.314 6.314H9.533a6.314 6.314 0 01-6.314-6.314V9.533a6.314 6.314 0 016.314-6.314h12.934a6.314 6.314 0 016.314 6.314v12.934z" fill="#333"/><path d="M16 7.742c-4.564 0-8.277 3.713-8.277 8.276 0 4.564 3.713 8.277 8.277 8.277 4.563 0 8.276-3.713 8.276-8.277 0-4.563-3.713-8.276-8.276-8.276zm0 13.334a5.057 5.057 0 110-10.115 5.057 5.057 0 010 10.115zM24.177 9.644a1.983 1.983 0 100-3.966 1.983 1.983 0 000 3.966z" fill="#333"/></svg>