<svg width="24" height="17" fill="none" xmlns="http://www.w3.org/2000/svg"><path d="M23.982 1.71c0-.027.02-.053.018-.08l-7.324 7.015 7.315 6.792c.005-.048-.009-.098-.009-.147V1.71zM15.558 9.725l-2.99 2.86a.782.782 0 01-1.075.008L8.51 9.83l-7.363 7.055c.179.064.371.114.572.114h20.611c.3 0 .58-.09.823-.226l-7.596-7.05z" fill="#fff"/><path d="M12.017 10.954L23.194.25a1.701 1.701 0 00-.863-.25H1.721C1.308 0 .931.159.638.4l11.378 10.554zM0 1.971v13.318c0 .153.035.3.074.442l7.271-6.962L0 1.971z" fill="#fff"/></svg>