<svg width="50" viewBox="0 0 50 50" height="50" fill="none" xmlns="http://www.w3.org/2000/svg"><path d="M25 0C11.194 0 0 11.194 0 25s11.194 25 25 25a4.161 4.161 0 004.167-4.167 4.201 4.201 0 00-1.084-2.805 4.172 4.172 0 01-1.055-2.75 4.161 4.161 0 014.166-4.167h4.917C43.778 36.111 50 29.89 50 22.222 50 9.944 38.806 0 25 0zM9.722 25a4.161 4.161 0 01-4.166-4.167 4.161 4.161 0 014.166-4.166 4.161 4.161 0 014.167 4.166A4.161 4.161 0 019.722 25zm8.334-11.111a4.161 4.161 0 01-4.167-4.167 4.161 4.161 0 014.167-4.166 4.161 4.161 0 014.166 4.166 4.161 4.161 0 01-4.166 4.167zm13.888 0a4.161 4.161 0 01-4.166-4.167 4.161 4.161 0 014.166-4.166 4.161 4.161 0 014.167 4.166 4.161 4.161 0 01-4.167 4.167zM40.278 25a4.161 4.161 0 01-4.167-4.167 4.161 4.161 0 014.167-4.166 4.161 4.161 0 014.166 4.166A4.161 4.161 0 0140.278 25z" fill="#FFC700"/></svg>
