<svg width="25" height="25" fill="none" xmlns="http://www.w3.org/2000/svg"><path d="M19.007 16.538c-.817-.806-1.837-.806-2.648 0-.62.614-1.238 1.228-1.847 1.852-.167.172-.307.208-.51.094-.4-.219-.827-.396-1.212-.635-1.795-1.129-3.298-2.58-4.63-4.214-.66-.811-1.249-1.68-1.66-2.658-.083-.198-.067-.328.094-.489.619-.598 1.222-1.212 1.831-1.826.848-.853.848-1.852-.005-2.71-.484-.49-.968-.968-1.452-1.457-.499-.5-.993-1.004-1.498-1.498-.817-.796-1.836-.796-2.648.005C2.198 3.616 1.6 4.245.965 4.849.377 5.405.08 6.087.018 6.883-.08 8.178.237 9.4.684 10.592c.916 2.466 2.31 4.656 4 6.664 2.284 2.716 5.01 4.864 8.2 6.415 1.435.697 2.923 1.232 4.541 1.32 1.113.063 2.081-.218 2.856-1.086.531-.594 1.13-1.135 1.691-1.702.832-.842.838-1.862.01-2.694-.988-.994-1.982-1.982-2.975-2.97zM18.013 12.392l1.92-.328a8.58 8.58 0 00-2.398-4.63 8.534 8.534 0 00-4.89-2.44l-.271 1.93a6.621 6.621 0 013.787 1.889 6.62 6.62 0 011.852 3.579zM21.015 4.047A14.155 14.155 0 0012.9 0l-.27 1.93a12.273 12.273 0 017.013 3.496 12.263 12.263 0 013.438 6.633L25 11.73a14.259 14.259 0 00-3.985-7.684z" fill="#fff"/></svg>